<svg xmlns="http://www.w3.org/2000/svg" version="1.1" viewBox="0 0 960 960">
<path d="M128 0H0V128H128V0Z" fill="black"/>
<path d="M256 0H128V128H256V0Z" fill="white"/>
<path d="M128 128H0V256H128V128Z" fill="white"/>
<path d="M256 128H128V256H256V128Z" fill="black"/>
<path d="M222.489 230.907H161.549L180.323 211.426C185.284 206.266 189.158 201.903 191.965 198.318C194.771 194.734 196.871 191.71 198.247 189.23C199.623 186.749 200.474 184.74 200.8 183.201C201.144 181.662 201.307 180.359 201.307 179.29C201.307 178.15 201.126 177.045 200.764 175.977C200.401 174.909 199.84 173.95 199.098 173.117C198.356 172.284 197.468 171.614 196.437 171.107C195.405 170.6 194.173 170.347 192.779 170.347C190.1 170.347 188.018 171.216 186.497 172.954C184.994 174.692 184.234 176.864 184.234 179.49C184.234 180.232 184.343 181.3 184.542 182.694H163.052C163.052 178.277 163.776 174.257 165.206 170.636C166.636 167.015 168.664 163.901 171.271 161.294C173.878 158.687 176.974 156.678 180.559 155.265C184.143 153.853 188.072 153.147 192.363 153.147C196.581 153.147 200.474 153.817 204.059 155.157C207.643 156.497 210.739 158.379 213.346 160.787C215.953 163.195 217.999 166.056 219.466 169.369C220.932 172.682 221.674 176.285 221.674 180.159C221.674 184.305 220.787 188.144 219.013 191.656C217.239 195.168 214.414 198.771 210.522 202.446L197.975 214.196H222.471V230.907H222.489Z" fill="white"/>
<path d="M88.0246 160.751C85.1821 158.162 81.706 156.08 77.6868 154.559C73.6675 153.057 69.0509 152.314 63.9453 152.314C58.9122 152.314 54.3318 153.075 50.3125 154.559C46.2752 156.08 42.781 158.18 39.9567 160.806C37.1142 163.431 34.9054 166.563 33.4028 170.111C31.9001 173.642 31.1216 177.516 31.1216 181.608C31.1216 185.446 31.7914 189.085 33.095 192.434C34.3985 195.802 36.209 198.771 38.5264 201.269C40.8257 203.768 43.6138 205.778 46.8183 207.226C50.0229 208.674 53.5533 209.398 57.3371 209.398C58.351 209.398 59.4735 209.272 60.7046 209.036C61.2658 208.928 61.8995 208.729 62.5875 208.439L43.4871 230.382L42.3465 231.685H44.0664H66.8602H67.2223L67.4577 231.396L85.0192 210.105C89.0203 205.234 92.0076 200.219 93.9267 195.168C95.8639 190.099 96.8415 185.337 96.8415 180.992C96.8415 177.082 96.0811 173.352 94.5603 169.876C93.0939 166.454 90.8851 163.376 88.0246 160.751ZM53.2274 176.665C53.8429 175.253 54.6939 174.004 55.7801 172.936C56.8664 171.867 58.1156 170.998 59.5097 170.383C60.9038 169.767 62.4426 169.46 64.054 169.46C65.6834 169.46 67.2223 169.767 68.5982 170.383C69.9923 170.998 71.2596 171.867 72.3278 172.936C73.396 174.004 74.2469 175.253 74.8806 176.665C75.4961 178.077 75.822 179.598 75.822 181.209C75.822 182.821 75.5142 184.36 74.8806 185.754C74.2469 187.166 73.396 188.415 72.3278 189.483C71.2596 190.552 70.0104 191.402 68.5982 192.036C67.2042 192.652 65.6834 192.959 64.054 192.959C62.4245 192.959 60.9038 192.652 59.5097 192.036C58.0975 191.402 56.8483 190.552 55.7801 189.483C54.712 188.415 53.861 187.166 53.2455 185.754C52.6118 184.36 52.304 182.839 52.304 181.191C52.2859 179.58 52.6118 178.059 53.2274 176.665Z" fill="black"/>
<path d="M222.488 85.4545H199.984L211.082 75.0624C215.011 71.3329 217.926 67.6214 219.736 64.0548C221.565 60.452 222.488 56.4508 222.488 52.1962C222.488 48.2313 221.728 44.4836 220.207 41.08C218.704 37.6763 216.568 34.7071 213.888 32.2268C211.209 29.7645 208.004 27.8092 204.347 26.4514C200.69 25.0935 196.671 24.3875 192.38 24.3875C188.017 24.3875 183.961 25.1116 180.304 26.56C176.647 27.9903 173.425 30.0904 170.745 32.7699C168.066 35.4313 165.965 38.672 164.499 42.3654C163.032 46.0587 162.29 50.2047 162.29 54.7128V55.4913H163.069H184.559H185.464L185.337 54.586C185.138 53.2282 185.048 52.1781 185.048 51.4901C185.048 49.046 185.718 47.0907 187.112 45.4794C188.469 43.9043 190.334 43.1439 192.797 43.1439C194.082 43.1439 195.186 43.3793 196.128 43.8138C197.069 44.2664 197.866 44.8819 198.536 45.6242C199.206 46.3846 199.712 47.2537 200.038 48.2132C200.382 49.1909 200.545 50.2228 200.545 51.2729C200.545 52.2867 200.382 53.5541 200.056 55.0205C199.749 56.4689 198.898 58.4242 197.576 60.8322C196.236 63.2582 194.154 66.2817 191.366 69.8121C188.596 73.3425 184.686 77.7419 179.761 82.8655L160.987 102.346L159.701 103.686H161.548H222.488H223.267V102.907V86.233V85.4545H222.488Z" fill="black"/>
<path d="M44.0662 102.907L65.5564 78.2123H65.1581C63.2752 79.3529 61.7363 80.0409 60.5414 80.2763C59.3284 80.5116 58.2602 80.6202 57.3369 80.6202C53.6616 80.6202 50.258 79.9142 47.144 78.5201C44.03 77.1079 41.3505 75.1888 39.1055 72.7447C36.8605 70.3006 35.1044 67.44 33.837 64.1631C32.5697 60.8862 31.936 57.3738 31.936 53.6262C31.936 49.6069 32.6783 45.8774 34.1448 42.4375C35.6113 38.9795 37.7476 35.9741 40.5176 33.4033C43.2877 30.8324 46.6551 28.8047 50.6019 27.3201C54.5488 25.8536 59.0025 25.1113 63.9632 25.1113C68.9782 25.1113 73.4682 25.8536 77.415 27.3201C81.3618 28.7866 84.7292 30.7962 87.4993 33.349C90.2693 35.9017 92.4056 38.8528 93.8721 42.2383C95.3386 45.6239 96.0809 49.2086 96.0809 53.0287C96.0809 57.3195 95.1213 61.9543 93.2203 66.9331C91.3193 71.93 88.3864 76.8183 84.4396 81.6522L66.8599 102.943H44.0662V102.907ZM76.6002 53.2098C76.6002 51.4717 76.2744 49.8423 75.5864 48.3396C74.9165 46.8369 74.0113 45.5153 72.8707 44.3747C71.7301 43.2341 70.4085 42.3289 68.9058 41.659C67.4031 40.9891 65.7737 40.6632 64.0356 40.6632C62.2976 40.6632 60.6681 41.0072 59.1655 41.659C57.6628 42.3289 56.3411 43.2341 55.2005 44.3747C54.0599 45.5153 53.1547 46.8369 52.4848 48.3396C51.815 49.8423 51.4891 51.4717 51.4891 53.2098C51.4891 54.9478 51.815 56.5772 52.4848 58.0799C53.1547 59.5826 54.0599 60.9043 55.2005 62.0449C56.3411 63.1854 57.6628 64.0907 59.1655 64.7606C60.6681 65.4304 62.2976 65.7563 64.0356 65.7563C65.7737 65.7563 67.4031 65.4304 68.9058 64.7606C70.4085 64.0907 71.7301 63.1854 72.8707 62.0449C74.0113 60.9043 74.9165 59.5826 75.5864 58.0799C76.2744 56.5772 76.6002 54.9478 76.6002 53.2098Z" fill="white"/>
<defs>
<clipPath id="clip0_419_305">
</clipPath>
</defs>
</svg>
