<?xml version="1.0" encoding="UTF-8"?>
<svg id="Layer_1" xmlns="http://www.w3.org/2000/svg" version="1.1" viewBox="0 0 960 960">
  <!-- Generator: Adobe Illustrator 30.1.0, SVG Export Plug-In . SVG Version: 2.1.1 Build 136)  -->
  <path d="M480,480v480h480v-480h-480ZM605.81,865.9l70.4-73.05c18.6-19.35,33.13-35.71,43.66-49.16,10.52-13.44,18.4-24.78,23.56-34.08,5.16-9.3,8.35-16.84,9.57-22.61,1.29-5.77,1.9-10.66,1.9-14.67,0-4.27-.68-8.42-2.04-12.42-1.36-4.01-3.47-7.6-6.25-10.72-2.78-3.12-6.11-5.64-9.98-7.54-3.87-1.9-8.49-2.85-13.72-2.85-10.05,0-17.85,3.26-23.56,9.78-5.64,6.52-8.49,14.66-8.49,24.51,0,2.78.41,6.79,1.16,12.01h-80.59c0-16.56,2.72-31.64,8.08-45.22,5.36-13.58,12.97-25.26,22.74-35.03,9.78-9.78,21.39-17.31,34.83-22.61,13.44-5.3,28.17-7.94,44.27-7.94s30.42,2.51,43.86,7.54c13.44,5.02,25.05,12.08,34.83,21.11,9.78,9.03,17.45,19.76,22.95,32.18,5.5,12.42,8.28,25.93,8.28,40.46,0,15.55-3.33,29.94-9.98,43.11-6.65,13.17-17.25,26.68-31.84,40.46l-47.05,44.06h91.86v62.67h-228.46Z"/>
  <path d="M330.09,602.82c-10.66-9.71-23.69-17.52-38.77-23.22-15.07-5.63-32.38-8.42-51.53-8.42s-36.05,2.85-51.12,8.42c-15.14,5.7-28.24,13.58-38.83,23.43-10.66,9.84-18.94,21.59-24.58,34.89-5.64,13.24-8.55,27.77-8.55,43.11,0,14.39,2.51,28.04,7.4,40.6,4.89,12.63,11.68,23.76,20.37,33.13,8.62,9.37,19.08,16.91,31.09,22.34,12.02,5.43,25.26,8.14,39.45,8.14,3.8,0,8.01-.47,12.63-1.36,2.1-.41,4.48-1.15,7.06-2.24l-71.63,82.29-4.28,4.89h93.28l.88-1.08,65.86-79.84c15-18.27,26.21-37.07,33.4-56.01,7.26-19.01,10.93-36.87,10.93-53.16,0-14.66-2.85-28.65-8.55-41.68-5.5-12.83-13.78-24.38-24.51-34.22ZM199.6,662.49c2.31-5.29,5.5-9.98,9.57-13.98,4.07-4.01,8.76-7.27,13.99-9.57,5.23-2.31,11-3.46,17.04-3.46s11.88,1.15,17.04,3.46c5.23,2.31,9.98,5.57,13.99,9.57,4.01,4,7.2,8.69,9.57,13.98,2.31,5.3,3.53,11,3.53,17.04s-1.15,11.82-3.53,17.04c-2.38,5.3-5.57,9.98-9.57,13.98-4.01,4.01-8.69,7.2-13.99,9.57-5.23,2.31-10.93,3.46-17.04,3.46s-11.81-1.15-17.04-3.46c-5.3-2.38-9.98-5.56-13.99-9.57-4.01-4.01-7.2-8.69-9.5-13.98-2.38-5.23-3.53-10.93-3.53-17.11-.07-6.04,1.15-11.74,3.46-16.97Z"/>
  <path d="M834.33,320.45h-84.39l41.62-38.97c14.73-13.99,25.66-27.9,32.45-41.28,6.86-13.51,10.32-28.52,10.32-44.47,0-14.87-2.85-28.92-8.55-41.69-5.64-12.76-13.65-23.9-23.7-33.2-10.05-9.23-22.07-16.57-35.78-21.66-13.71-5.09-28.78-7.74-44.88-7.74s-31.57,2.72-45.29,8.15c-13.71,5.36-25.8,13.24-35.85,23.29-10.05,9.98-17.92,22.13-23.42,35.98-5.5,13.85-8.28,29.4-8.28,46.3v2.92h86.9l-.48-3.39c-.75-5.09-1.08-9.03-1.08-11.61,0-9.17,2.51-16.5,7.74-22.54,5.09-5.91,12.08-8.76,21.32-8.76,4.82,0,8.96.88,12.49,2.51,3.53,1.7,6.52,4.01,9.03,6.79,2.51,2.85,4.41,6.11,5.63,9.71,1.29,3.67,1.9,7.54,1.9,11.47s-.61,8.55-1.83,14.05c-1.15,5.43-4.34,12.76-9.3,21.79-5.03,9.1-12.83,20.44-23.29,33.67-10.39,13.24-25.05,29.74-43.52,48.95l-70.4,73.05-4.82,5.02h238.37v-68.37h-2.92Z"/>
  <g>
    <path d="M273.27,166.41c-4.28-4.28-9.23-7.67-14.87-10.18s-11.75-3.73-18.26-3.73-12.63,1.29-18.26,3.73c-5.64,2.51-10.59,5.91-14.87,10.18s-7.67,9.23-10.18,14.87c-2.51,5.64-3.73,11.75-3.73,18.26s1.22,12.63,3.73,18.26c2.51,5.64,5.91,10.59,10.18,14.87,4.28,4.28,9.23,7.67,14.87,10.18,5.63,2.51,11.75,3.73,18.26,3.73s12.63-1.22,18.26-3.73c5.64-2.51,10.59-5.91,14.87-10.18,4.28-4.28,7.67-9.23,10.18-14.87,2.58-5.64,3.8-11.75,3.8-18.26s-1.22-12.63-3.8-18.26c-2.51-5.64-5.91-10.59-10.18-14.87Z"/>
    <path d="M0,0v480h480V0H0ZM349.58,251c-7.13,18.74-18.13,37.07-32.93,55.2l-65.92,79.84h-85.48v-.14l80.59-92.61h-1.49c-7.06,4.28-12.83,6.86-17.31,7.74-4.55.88-8.55,1.29-12.02,1.29-13.78,0-26.55-2.65-38.22-7.88-11.68-5.3-21.73-12.49-30.14-21.66-8.42-9.17-15-19.89-19.76-32.18-4.75-12.29-7.13-25.46-7.13-39.51,0-15.07,2.78-29.06,8.28-41.96,5.5-12.97,13.51-24.24,23.9-33.88,10.39-9.64,23.02-17.24,37.82-22.81,14.8-5.5,31.5-8.28,50.1-8.28s35.64,2.78,50.44,8.28c14.8,5.5,27.43,13.04,37.82,22.61,10.39,9.57,18.4,20.64,23.9,33.33,5.5,12.7,8.28,26.14,8.28,40.46,0,16.09-3.6,33.47-10.73,52.14Z"/>
  </g>
</svg>